<?xml version="1.0" encoding="UTF-8" standalone="no"?>
<!-- Created with Inkscape (http://www.inkscape.org/) -->

<svg
   width="71.810936"
   height="99.759125"
   viewBox="0 0 18.999976 26.394602"
   version="1.1"
   id="svg1"
   xml:space="preserve"
   inkscape:version="1.4 (e7c3feb100, 2024-10-09)"
   sodipodi:docname="bytescafe.svg"
   xmlns:inkscape="http://www.inkscape.org/namespaces/inkscape"
   xmlns:sodipodi="http://sodipodi.sourceforge.net/DTD/sodipodi-0.dtd"
   xmlns="http://www.w3.org/2000/svg"
   xmlns:svg="http://www.w3.org/2000/svg"><sodipodi:namedview
     id="namedview1"
     pagecolor="#505050"
     bordercolor="#eeeeee"
     borderopacity="1"
     inkscape:showpageshadow="0"
     inkscape:pageopacity="0"
     inkscape:pagecheckerboard="0"
     inkscape:deskcolor="#505050"
     inkscape:document-units="mm"
     showgrid="true"
     inkscape:zoom="3.9609884"
     inkscape:cx="-7.447636"
     inkscape:cy="41.403807"
     inkscape:window-width="1860"
     inkscape:window-height="1000"
     inkscape:window-x="0"
     inkscape:window-y="0"
     inkscape:window-maximized="1"
     inkscape:current-layer="layer1"><inkscape:grid
       id="grid1"
       units="mm"
       originx="-8.5000237"
       originy="-5.1053976"
       spacingx="0.99999998"
       spacingy="1"
       empcolor="#0099e5"
       empopacity="0.30196078"
       color="#0099e5"
       opacity="0.14901961"
       empspacing="5"
       enabled="true"
       visible="true" /></sodipodi:namedview><defs
     id="defs1" /><g
     inkscape:label="Layer 1"
     inkscape:groupmode="layer"
     id="layer1"
     transform="translate(-8.500024,-5.1053975)"><path
       style="fill:none;stroke:#ffffff;stroke-width:3;stroke-linecap:round;stroke-linejoin:round;stroke-opacity:1"
       d="M 18.708492,9.9525945 10,9.9999997 13,30 H 23 L 26,9.9999997"
       id="path1"
       sodipodi:nodetypes="ccccc" /><g
       style="fill:#e8eaed"
       id="g1"
       transform="matrix(0.00661458,0,0,0.00661458,14.803049,22.127498)"><path
         d="m 295,-119 q -36,-1 -68.5,-18.5 Q 194,-155 165,-189 125,-237 102.5,-303.5 80,-370 80,-440 q 0,-83 31.5,-156 31.5,-73 85.5,-127 54,-54 127,-85.5 73,-31.5 156,-31.5 83,0 156,32 73,32 127,87 54,55 85.5,129 31.5,74 31.5,159 0,77 -25,144 -25,67 -71,113 -28,28 -59,42.5 -31,14.5 -63,14.5 -18,0 -36,-4.5 -18,-4.5 -36,-13.5 l -56,-28 q -12,-6 -25.5,-9 -13.5,-3 -28.5,-3 -15,0 -28.5,3 -13.5,3 -25.5,9 l -56,28 q -19,10 -37.5,14.5 -18.5,4.5 -37.5,3.5 z m 2,-80 q 9,0 18.5,-2 9.5,-2 18.5,-7 l 56,-28 q 21,-11 43.5,-16 22.5,-5 45.5,-5 23,0 46,5 23,5 44,16 l 57,28 q 9,5 18,7 9,2 18,2 19,0 36,-10 17,-10 34,-30 32,-38 50,-91 18,-53 18,-109 0,-134 -93,-227.5 -93,-93.5 -227,-93.5 -134,0 -227,94 -93,94 -93,228 0,57 18.5,111 18.5,54 51.5,91 17,20 33,28.5 16,8.5 34,8.5 z m 183,-281 z m 0,120 q 33,0 56.5,-23.5 23.5,-23.5 23.5,-56.5 0,-8 -1.5,-16 -1.5,-8 -4.5,-16 l 50,-67 q 10,13 17.5,27.5 7.5,14.5 12.5,31.5 h 82 q -15,-88 -81.5,-144 -66.5,-56 -154.5,-56 -88,0 -155,56.5 -67,56.5 -81,143.5 h 82 q 14,-54 57,-87 43,-33 97,-33 17,0 32,3 15,3 29,9 l -51,69 q -2,0 -5,-0.5 -3,-0.5 -5,-0.5 -33,0 -56.5,23.5 -23.5,23.5 -23.5,56.5 0,33 23.5,56.5 23.5,23.5 56.5,23.5 z"
         id="path1-5" /></g><g
       id="g2"
       transform="matrix(0.14091088,-0.46798635,0.46798635,0.14091088,17.255159,17.961196)"><path
         d="m 13.505064,6.7482794 c 0.60544,0 1.016683,-0.5292842 1.016683,-1.3441534 0,-0.8148692 -0.411243,-1.3441535 -1.016683,-1.3441535 -0.60544,0 -1.016682,0.5292843 -1.016682,1.3441535 0,0.8148692 0.411242,1.3441534 1.016682,1.3441534 z m 0,-0.072348 c -0.559746,0 -0.940526,-0.4912062 -0.940526,-1.2718052 0,-0.780599 0.38078,-1.2718053 0.940526,-1.2718053 0.559747,0 0.940527,0.4912063 0.940527,1.2718053 0,0.780599 -0.38078,1.2718052 -0.940527,1.2718052 z"
         id="text1"
         style="font-weight:100;font-size:3.8078px;line-height:6.47628px;font-family:Montserrat;-inkscape-font-specification:'Montserrat, Thin';fill:#ffffff;stroke:#ffffff;stroke-width:0.142792;stroke-linecap:round;stroke-linejoin:round"
         aria-label="0" /><path
         d="m 19.370499,6.759703 c 0.60544,0 1.016683,-0.5292842 1.016683,-1.3441534 0,-0.8148693 -0.411243,-1.3441535 -1.016683,-1.3441535 -0.60544,0 -1.016683,0.5292842 -1.016683,1.3441535 0,0.8148692 0.411243,1.3441534 1.016683,1.3441534 z m 0,-0.072348 c -0.559747,0 -0.940527,-0.4912062 -0.940527,-1.2718052 0,-0.7805991 0.38078,-1.2718053 0.940527,-1.2718053 0.559747,0 0.940527,0.4912062 0.940527,1.2718053 0,0.780599 -0.38078,1.2718052 -0.940527,1.2718052 z"
         id="text1-5"
         style="font-weight:100;font-size:3.8078px;line-height:6.47628px;font-family:Montserrat;-inkscape-font-specification:'Montserrat, Thin';fill:#ffffff;stroke:#ffffff;stroke-width:0.142792;stroke-linecap:round;stroke-linejoin:round"
         aria-label="0" /><path
         d="m 24.007426,6.759703 c 0.60544,0 1.016682,-0.5292842 1.016682,-1.3441534 0,-0.8148693 -0.411242,-1.3441535 -1.016682,-1.3441535 -0.605441,0 -1.016683,0.5292842 -1.016683,1.3441535 0,0.8148692 0.411242,1.3441534 1.016683,1.3441534 z m 0,-0.072348 c -0.559747,0 -0.940527,-0.4912062 -0.940527,-1.2718052 0,-0.7805991 0.38078,-1.2718053 0.940527,-1.2718053 0.559746,0 0.940526,0.4912062 0.940526,1.2718053 0,0.780599 -0.38078,1.2718052 -0.940526,1.2718052 z"
         id="text1-5-2"
         style="font-weight:100;font-size:3.8078px;line-height:6.47628px;font-family:Montserrat;-inkscape-font-specification:'Montserrat, Thin';fill:#ffffff;stroke:#ffffff;stroke-width:0.142792;stroke-linecap:round;stroke-linejoin:round"
         aria-label="0" /><path
         d="m 26.695296,6.759703 c 0.60544,0 1.016682,-0.5292842 1.016682,-1.3441534 0,-0.8148693 -0.411242,-1.3441535 -1.016682,-1.3441535 -0.605441,0 -1.016683,0.5292842 -1.016683,1.3441535 0,0.8148692 0.411242,1.3441534 1.016683,1.3441534 z m 0,-0.072348 c -0.559747,0 -0.940527,-0.4912062 -0.940527,-1.2718052 0,-0.7805991 0.38078,-1.2718053 0.940527,-1.2718053 0.559746,0 0.940526,0.4912062 0.940526,1.2718053 0,0.780599 -0.38078,1.2718052 -0.940526,1.2718052 z"
         id="text1-5-2-9"
         style="font-weight:100;font-size:3.8078px;line-height:6.47628px;font-family:Montserrat;-inkscape-font-specification:'Montserrat, Thin';fill:#ffffff;stroke:#ffffff;stroke-width:0.142792;stroke-linecap:round;stroke-linejoin:round"
         aria-label="0" /><path
         d="m 15.255948,4.8622247 h 0.685404 V 7.4553366 H 16.0137 V 4.7898765 h -0.757752 z"
         id="text1-3"
         style="font-weight:100;font-size:3.8078px;line-height:6.47628px;font-family:Montserrat;-inkscape-font-specification:'Montserrat, Thin';fill:#ffffff;stroke:#ffffff;stroke-width:0.142792;stroke-linecap:round;stroke-linejoin:round"
         aria-label="1" /><path
         d="m 16.586578,4.1437441 h 0.685404 V 6.736856 h 0.07235 V 4.0713959 h -0.757752 z"
         id="text1-3-0"
         style="font-weight:100;font-size:3.8078px;line-height:6.47628px;font-family:Montserrat;-inkscape-font-specification:'Montserrat, Thin';fill:#ffffff;stroke:#ffffff;stroke-width:0.142792;stroke-linecap:round;stroke-linejoin:round"
         aria-label="1" /><path
         d="m 21.129039,4.8622247 h 0.685404 v 2.5931119 h 0.07235 V 4.7898765 h -0.757753 z"
         id="text1-3-0-8"
         style="font-weight:100;font-size:3.8078px;line-height:6.47628px;font-family:Montserrat;-inkscape-font-specification:'Montserrat, Thin';fill:#ffffff;stroke:#ffffff;stroke-width:0.142792;stroke-linecap:round;stroke-linejoin:round"
         aria-label="1" /><path
         d="m 28.080375,4.8622247 h 0.685404 v 2.5931119 h 0.07235 V 4.7898765 h -0.757753 z"
         id="text1-3-0-8-1"
         style="font-weight:100;font-size:3.8078px;line-height:6.47628px;font-family:Montserrat;-inkscape-font-specification:'Montserrat, Thin';fill:#ffffff;stroke:#ffffff;stroke-width:0.142792;stroke-linecap:round;stroke-linejoin:round"
         aria-label="1" /></g></g></svg>
