<!DOCTYPE svg PUBLIC "-//W3C//DTD SVG 1.1//EN" "http://www.w3.org/Graphics/SVG/1.1/DTD/svg11.dtd">
<!-- Uploaded to: SVG Repo, www.svgrepo.com, Transformed by: SVG Repo Mixer Tools -->
<svg fill="#ffffff" height="64px" width="64px" version="1.1" id="Layer_1" xmlns="http://www.w3.org/2000/svg" xmlns:xlink="http://www.w3.org/1999/xlink" viewBox="0 0 330 330" xml:space="preserve" stroke="#ffffff">
<g id="SVGRepo_bgCarrier" stroke-width="0"/>
<g id="SVGRepo_tracerCarrier" stroke-linecap="round" stroke-linejoin="round"/>
<g id="SVGRepo_iconCarrier"> <path id="XMLID_107_" d="M330,157.501c0-8.284-6.716-15-15-15h-1.367c-6.248-33.875-33.257-60.568-67.294-66.34 C239.737,37.235,205.776,7.5,165,7.5c-40.776,0-74.738,29.735-81.339,68.661c-34.037,5.772-61.045,32.465-67.293,66.34H15 c-8.284,0-15,6.716-15,15c0,59.265,31.413,111.323,78.457,140.422C76.299,300.522,75,303.858,75,307.5c0,8.284,6.716,15,15,15h150 c8.284,0,15-6.716,15-15c0-3.642-1.299-6.978-3.457-9.577C298.587,268.824,330,216.766,330,157.501z M97.5,105 c8.284,0,15-6.716,15-15c0-28.949,23.551-52.5,52.5-52.5c28.948,0,52.5,23.551,52.5,52.5c0,8.284,6.716,15,15,15 c23.736,0,43.834,15.84,50.305,37.501H210c6.627-4.971,7.971-14.373,3-21c-4.971-6.628-14.373-7.97-21-3l-12,9V94.5 c0-8.284-6.716-15-15-15s-15,6.716-15,15v33.001l-12-9c-6.627-4.971-16.029-3.627-21,3c-4.971,6.627-3.627,16.029,3,21l0.001,0.001 H47.195C53.665,120.84,73.763,105,97.5,105z M165,292.5c-69.369,0-126.686-52.594-134.172-119.999h134.136 c0.008,0,0.017,0.001,0.025,0.001c0.004,0,0.008-0.001,0.012-0.001s0.008,0.001,0.012,0.001c0.008,0,0.017-0.001,0.025-0.001 h134.135C291.685,239.906,234.369,292.5,165,292.5z"/> </g>
</svg>